<mxfile host="app.diagrams.net" modified="2023-06-17T19:06:48.557Z" agent="Mozilla/5.0 (Windows NT 10.0; Win64; x64) AppleWebKit/537.36 (KHTML, like Gecko) Chrome/114.0.0.0 Safari/537.36" etag="Midmeo6keR5xiHpt6NCS" version="21.4.0" type="device">
  <diagram name="Page-1" id="1RJ68AMVyinYJOcooP6o">
    <mxGraphModel dx="1196" dy="709" grid="1" gridSize="10" guides="1" tooltips="1" connect="1" arrows="1" fold="1" page="1" pageScale="1" pageWidth="850" pageHeight="1100" math="0" shadow="0">
      <root>
        <mxCell id="0" />
        <mxCell id="1" parent="0" />
        <mxCell id="6DpHm1yewm9EBu3A8U6r-1" value="" style="rounded=0;whiteSpace=wrap;html=1;" vertex="1" parent="1">
          <mxGeometry width="850" height="990" as="geometry" />
        </mxCell>
        <mxCell id="6DpHm1yewm9EBu3A8U6r-4" value="" style="rounded=0;whiteSpace=wrap;html=1;strokeColor=#CCCC00;" vertex="1" parent="1">
          <mxGeometry x="425" y="60" width="325" height="280" as="geometry" />
        </mxCell>
        <mxCell id="6DpHm1yewm9EBu3A8U6r-25" value="Navigation:&lt;br&gt;About me&lt;br&gt;Contact Info&lt;br&gt;Application 1&lt;br&gt;Application 2" style="rounded=0;whiteSpace=wrap;html=1;strokeColor=#CCCC00;" vertex="1" parent="1">
          <mxGeometry x="100" y="60" width="325" height="280" as="geometry" />
        </mxCell>
        <mxCell id="6DpHm1yewm9EBu3A8U6r-6" value="" style="endArrow=none;html=1;rounded=0;entryX=1;entryY=1;entryDx=0;entryDy=0;exitX=1;exitY=0;exitDx=0;exitDy=0;" edge="1" parent="1" target="6DpHm1yewm9EBu3A8U6r-4">
          <mxGeometry width="50" height="50" relative="1" as="geometry">
            <mxPoint x="425" y="60" as="sourcePoint" />
            <mxPoint x="510" y="300" as="targetPoint" />
          </mxGeometry>
        </mxCell>
        <mxCell id="6DpHm1yewm9EBu3A8U6r-2" value="&lt;font face=&quot;Verdana&quot; style=&quot;font-size: 36px;&quot;&gt;Abigail Turnwall-Peloquin&lt;/font&gt;" style="rounded=1;whiteSpace=wrap;html=1;strokeColor=#CC0000;strokeWidth=3;" vertex="1" parent="1">
          <mxGeometry x="150" y="10" width="550" height="60" as="geometry" />
        </mxCell>
        <mxCell id="6DpHm1yewm9EBu3A8U6r-5" value="" style="endArrow=none;html=1;rounded=0;exitX=1;exitY=0;exitDx=0;exitDy=0;entryX=0;entryY=1;entryDx=0;entryDy=0;" edge="1" parent="1" source="6DpHm1yewm9EBu3A8U6r-4" target="6DpHm1yewm9EBu3A8U6r-4">
          <mxGeometry width="50" height="50" relative="1" as="geometry">
            <mxPoint x="460" y="350" as="sourcePoint" />
            <mxPoint x="510" y="300" as="targetPoint" />
            <Array as="points" />
          </mxGeometry>
        </mxCell>
        <mxCell id="6DpHm1yewm9EBu3A8U6r-13" value="About me" style="rounded=0;whiteSpace=wrap;html=1;verticalAlign=top;" vertex="1" parent="1">
          <mxGeometry x="100" y="420" width="650" height="220" as="geometry" />
        </mxCell>
        <mxCell id="6DpHm1yewm9EBu3A8U6r-18" value="Application 2" style="rounded=0;whiteSpace=wrap;html=1;verticalAlign=top;" vertex="1" parent="1">
          <mxGeometry x="100" y="710" width="320" height="220" as="geometry" />
        </mxCell>
        <mxCell id="6DpHm1yewm9EBu3A8U6r-19" value="Application 3" style="rounded=0;whiteSpace=wrap;html=1;verticalAlign=top;" vertex="1" parent="1">
          <mxGeometry x="430" y="710" width="320" height="220" as="geometry" />
        </mxCell>
        <mxCell id="6DpHm1yewm9EBu3A8U6r-20" value="" style="endArrow=none;html=1;rounded=0;entryX=1;entryY=0;entryDx=0;entryDy=0;exitX=0;exitY=1;exitDx=0;exitDy=0;" edge="1" parent="1" source="6DpHm1yewm9EBu3A8U6r-18" target="6DpHm1yewm9EBu3A8U6r-18">
          <mxGeometry width="50" height="50" relative="1" as="geometry">
            <mxPoint x="320" y="770" as="sourcePoint" />
            <mxPoint x="370" y="720" as="targetPoint" />
          </mxGeometry>
        </mxCell>
        <mxCell id="6DpHm1yewm9EBu3A8U6r-21" value="" style="endArrow=none;html=1;rounded=0;entryX=1;entryY=0;entryDx=0;entryDy=0;exitX=0;exitY=1;exitDx=0;exitDy=0;" edge="1" parent="1">
          <mxGeometry width="50" height="50" relative="1" as="geometry">
            <mxPoint x="430" y="930" as="sourcePoint" />
            <mxPoint x="750" y="710" as="targetPoint" />
          </mxGeometry>
        </mxCell>
        <mxCell id="6DpHm1yewm9EBu3A8U6r-22" value="" style="endArrow=none;html=1;rounded=0;entryX=0;entryY=0;entryDx=0;entryDy=0;exitX=1;exitY=1;exitDx=0;exitDy=0;" edge="1" parent="1" source="6DpHm1yewm9EBu3A8U6r-18" target="6DpHm1yewm9EBu3A8U6r-18">
          <mxGeometry width="50" height="50" relative="1" as="geometry">
            <mxPoint x="320" y="770" as="sourcePoint" />
            <mxPoint x="370" y="720" as="targetPoint" />
          </mxGeometry>
        </mxCell>
        <mxCell id="6DpHm1yewm9EBu3A8U6r-23" value="" style="endArrow=none;html=1;rounded=0;entryX=0;entryY=0;entryDx=0;entryDy=0;exitX=1;exitY=1;exitDx=0;exitDy=0;" edge="1" parent="1">
          <mxGeometry width="50" height="50" relative="1" as="geometry">
            <mxPoint x="750" y="930" as="sourcePoint" />
            <mxPoint x="430" y="710" as="targetPoint" />
          </mxGeometry>
        </mxCell>
        <mxCell id="6DpHm1yewm9EBu3A8U6r-26" value="Contact Info" style="rounded=0;whiteSpace=wrap;html=1;verticalAlign=top;" vertex="1" parent="1">
          <mxGeometry x="100" y="650" width="650" height="50" as="geometry" />
        </mxCell>
      </root>
    </mxGraphModel>
  </diagram>
</mxfile>
